# xmcd
#
# Track frame offsets: 
#        150
#        21740
#        41842
#        61177
#        82895
#        97600
#        117577
#        130632
#        151515
#        168722
#        188710
#        203895
#        219357
#        234442
#        248917
#        265480
#        282802
#        297810
#        311700
#
# Disc length: 4539 seconds
#
# Revision: 10
# Processed by: cddbd v1.5.2PL0 Copyright (c) Steve Scherf et al.
# Submitted via: ExactAudioCopy v0.99pb4
#
DISCID=0911b913
DTITLE=Various Artist - Genuine Houserockin' Music IV
DYEAR=1990
DGENRE=Blues
TTITLE0=Clarence "Gatemouth" Brown - Got My Mojo Working
TTITLE1=Lonnie Mack - Natual Disaster
TTITLE2=Charlie Musselwhite - River Hip Mama
TTITLE3=Koko Taylor - Time Will Tell
TTITLE4=Lil' Ed And The Blues Imperials - Chicken, Gravy And Biscuits
TTITLE5=Delbert McClinton - B Movie Boxcar Blues
TTITLE6=Charles Brown - I Stepped In Quicksand
TTITLE7=Kinsey Report - Midnight Drive
TTITLE8=Kenny Neal - The Son I Never Knew
TTITLE9=Little Charlie And The Nightcats - Don't Do It
TTITLE10=Katie Webster - Two-Fisted Mama
TTITLE11=Tinsley Ellis - Pawnbroker
TTITLE12=Sonny Boy Williamson - I Can't Understand
TTITLE13=Lucky Peterson - Your Lies
TTITLE14=Elvin Bishop - Rollin' With My Blues
TTITLE15=William Clarke - Lollipop Mama
TTITLE16=Saffire- the Uppity Blues Women - Silent Thunder In My Heart
TTITLE17=Paladins - I Don't Beleive
TTITLE18=James Cotton, Junior Wells, Carey Bell And Billy Branch - Dow
TTITLE18=n Home Blues
EXTD=LABEL =Alligator Records and Artist Management, Inc.\nID =alcd104
EXTD=\nUPC =014551-0104-25\nCOPYRIGHT =1990\n****\nYEAR: 1990
EXTT0=
EXTT1=
EXTT2=
EXTT3=
EXTT4=
EXTT5=
EXTT6=
EXTT7=
EXTT8=
EXTT9=
EXTT10=
EXTT11=
EXTT12=
EXTT13=
EXTT14=
EXTT15=
EXTT16=
EXTT17=
EXTT18=
PLAYORDER=
